<svg xmlns="http://www.w3.org/2000/svg" xmlns:xlink="http://www.w3.org/1999/xlink" width="500" zoomAndPan="magnify" viewBox="0 0 375 374.999991" height="500" preserveAspectRatio="xMidYMid meet" version="1.0"><defs><g/></defs><rect x="-37.5" width="450" fill="#ffffff" y="-37.499999" height="449.999989" fill-opacity="1"/><rect x="-37.5" width="450" fill="#000000" y="-37.499999" height="449.999989" fill-opacity="1"/><g fill="#ffffff" fill-opacity="1"><g transform="translate(92.757739, 214.769811)"><g><path d="M -13.105469 -144.480469 L -7.390625 -125.664062 C -7.390625 -124.65625 -4.367188 -118.609375 -2.6875 -118.609375 L -2.015625 -118.609375 C -2.015625 -118.945312 -0.671875 -119.953125 -0.335938 -119.953125 C 0 -119.953125 0.335938 -119.953125 0.671875 -119.617188 C 1.007812 -119.28125 1.34375 -119.28125 1.679688 -119.28125 C 1.679688 -122.640625 -3.359375 -159.601562 -9.40625 -159.601562 C -9.742188 -159.601562 -10.078125 -159.601562 -10.078125 -159.265625 C -10.078125 -158.929688 -10.414062 -158.59375 -10.753906 -158.59375 C -11.425781 -158.59375 -11.761719 -158.929688 -12.097656 -159.601562 C -12.433594 -159.9375 -12.769531 -160.273438 -13.441406 -160.273438 C -15.121094 -160.273438 -15.121094 -156.910156 -15.121094 -155.902344 C -15.121094 -151.535156 -14.449219 -147.839844 -13.105469 -144.480469 Z M -5.710938 -137.089844 C -5.710938 -137.425781 -5.710938 -137.425781 -5.375 -137.425781 C -5.039062 -137.425781 -5.039062 -137.425781 -5.039062 -137.089844 C -5.039062 -136.753906 -5.039062 -136.753906 -5.375 -136.753906 C -5.710938 -136.753906 -5.710938 -136.753906 -5.710938 -137.089844 Z M -5.375 -135.070312 C -5.375 -135.40625 -5.375 -135.40625 -5.039062 -135.40625 C -4.703125 -135.40625 -4.703125 -135.40625 -4.703125 -135.070312 C -4.703125 -134.734375 -4.703125 -134.734375 -5.039062 -134.734375 C -5.375 -134.734375 -5.375 -134.734375 -5.375 -135.070312 Z M -3.023438 -126.335938 C -3.023438 -126.671875 -3.023438 -126.671875 -2.6875 -126.671875 C -2.351562 -126.671875 -2.351562 -126.671875 -2.351562 -126.335938 C -2.351562 -126 -2.351562 -126 -2.6875 -126 C -3.023438 -126 -3.023438 -126 -3.023438 -126.335938 Z M -1.007812 -121.632812 C -0.671875 -121.632812 -0.671875 -121.632812 -0.671875 -121.296875 C -0.671875 -120.960938 -0.671875 -120.960938 -1.007812 -120.960938 C -1.34375 -120.960938 -1.34375 -120.960938 -1.34375 -121.296875 C -1.34375 -121.632812 -1.34375 -121.632812 -1.007812 -121.632812 Z M -38.304688 91.054688 C -38.304688 98.785156 -36.960938 112.558594 -27.886719 112.558594 C -4.703125 112.558594 12.097656 66.527344 14.113281 46.703125 L 16.800781 16.800781 C 16.464844 11.089844 16.464844 5.039062 16.800781 -1.34375 C 17.136719 -7.390625 17.136719 -13.441406 17.136719 -19.488281 L 33.601562 -40.320312 L 68.542969 -76.945312 C 68.878906 -77.28125 69.550781 -77.953125 69.886719 -78.625 C 70.894531 -79.632812 71.230469 -80.304688 71.230469 -80.976562 C 71.230469 -81.648438 70.894531 -81.984375 70.558594 -81.984375 C 69.886719 -81.984375 69.214844 -81.984375 68.542969 -81.648438 C 67.535156 -81.3125 66.863281 -80.976562 65.855469 -80.976562 C 65.855469 -81.3125 65.855469 -81.648438 66.191406 -82.320312 C 66.191406 -82.65625 65.855469 -82.992188 65.519531 -82.992188 C 63.167969 -82.992188 58.464844 -78.289062 57.457031 -77.28125 L 30.238281 -48.046875 L 16.800781 -31.246094 L 13.441406 -71.566406 L 10.753906 -87.023438 C 10.414062 -87.359375 10.078125 -88.703125 9.742188 -90.71875 C 9.070312 -92.398438 8.0625 -93.40625 7.054688 -93.40625 L 5.710938 -92.0625 C 5.375 -92.398438 4.703125 -92.734375 4.367188 -93.40625 C 3.695312 -93.742188 3.023438 -94.078125 2.6875 -94.078125 C 0.335938 -94.078125 0.671875 -89.039062 0.671875 -88.03125 C 0.671875 -87.695312 0.671875 -87.359375 1.007812 -86.6875 L 1.007812 -85.34375 C 4.703125 -63.503906 6.71875 -42.335938 6.71875 -21.167969 L 6.71875 -17.472656 L -15.792969 20.832031 L -27.886719 46.703125 C -34.273438 59.808594 -38.304688 76.609375 -38.304688 91.054688 Z M 6.71875 -88.03125 C 7.054688 -88.03125 7.054688 -88.03125 7.054688 -87.695312 C 7.054688 -87.359375 7.054688 -87.359375 6.71875 -87.359375 C 6.382812 -87.359375 6.382812 -87.359375 6.382812 -87.695312 C 6.382812 -88.03125 6.382812 -88.03125 6.71875 -88.03125 Z M 11.425781 -47.039062 L 11.761719 -47.039062 L 11.761719 -46.703125 C 11.425781 -46.703125 11.425781 -46.703125 11.425781 -47.039062 Z M -20.832031 46.03125 L -8.0625 19.152344 L 7.054688 -5.375 L 7.054688 1.679688 C 7.054688 24.527344 5.375 46.703125 -0.335938 68.542969 C -3.695312 79.296875 -13.777344 107.519531 -26.542969 107.519531 C -28.558594 107.519531 -29.566406 105.839844 -30.574219 103.488281 C -31.921875 99.792969 -32.257812 94.753906 -32.257812 92.398438 C -32.257812 76.273438 -27.550781 60.480469 -20.832031 46.03125 Z M 13.105469 2.6875 C 13.105469 2.351562 13.105469 2.351562 13.441406 2.351562 C 13.777344 2.351562 13.777344 2.351562 13.777344 2.6875 C 13.777344 3.023438 13.777344 3.023438 13.441406 3.023438 C 13.105469 3.023438 13.105469 3.023438 13.105469 2.6875 Z M -7.054688 8.734375 C -7.054688 8.398438 -7.054688 8.398438 -6.71875 8.398438 C -6.382812 8.398438 -6.382812 8.398438 -6.382812 8.734375 C -6.382812 9.070312 -6.382812 9.070312 -6.71875 9.070312 C -7.054688 9.070312 -7.054688 9.070312 -7.054688 8.734375 Z M -30.910156 67.871094 C -30.910156 67.535156 -30.910156 67.535156 -30.574219 67.535156 C -30.238281 67.535156 -30.238281 67.535156 -30.238281 67.871094 C -30.238281 68.207031 -30.238281 68.207031 -30.574219 68.207031 C -30.910156 68.207031 -30.910156 68.207031 -30.910156 67.871094 Z M -31.921875 72.238281 L -31.585938 72.238281 C -31.585938 72.574219 -31.585938 72.574219 -31.921875 72.574219 C -32.257812 72.574219 -32.257812 72.574219 -31.921875 72.238281 Z M -33.601562 81.648438 C -33.601562 81.3125 -33.601562 81.3125 -33.265625 81.3125 C -32.929688 81.3125 -32.929688 81.3125 -32.929688 81.648438 C -32.929688 81.984375 -32.929688 81.984375 -33.265625 81.984375 C -33.601562 81.984375 -33.601562 81.984375 -33.601562 81.648438 Z M -33.9375 85.007812 L -34.273438 85.007812 C -34.273438 84.671875 -34.273438 84.671875 -33.9375 84.671875 Z M -34.273438 85.679688 C -34.273438 85.34375 -34.273438 85.34375 -33.9375 85.34375 C -33.601562 85.34375 -33.601562 85.34375 -33.601562 85.679688 C -33.601562 86.015625 -33.601562 86.015625 -33.9375 86.015625 C -34.273438 86.015625 -34.273438 86.015625 -34.273438 85.679688 Z M -33.9375 87.359375 C -33.601562 87.359375 -33.601562 87.359375 -33.601562 87.695312 C -33.601562 88.03125 -33.601562 88.03125 -33.9375 88.03125 C -34.273438 88.03125 -34.273438 88.03125 -34.273438 87.695312 C -34.273438 87.359375 -34.273438 87.359375 -33.9375 87.359375 Z M -34.273438 88.703125 C -33.9375 88.703125 -33.9375 88.703125 -33.9375 89.039062 C -33.9375 89.375 -33.9375 89.375 -34.273438 89.375 C -34.609375 89.375 -34.609375 89.375 -34.609375 89.039062 C -34.609375 88.703125 -34.609375 88.703125 -34.273438 88.703125 Z M -34.273438 91.726562 L -34.273438 92.0625 L -34.609375 92.0625 C -34.609375 91.726562 -34.609375 91.726562 -34.273438 91.726562 Z M -34.609375 92.734375 C -34.609375 92.398438 -34.609375 92.398438 -34.273438 92.398438 C -33.9375 92.398438 -33.9375 92.398438 -33.9375 92.734375 C -33.9375 93.070312 -33.9375 93.070312 -34.273438 93.070312 C -34.609375 93.070312 -34.609375 93.070312 -34.609375 92.734375 Z M -34.273438 93.742188 L -34.273438 93.40625 L -33.9375 93.742188 L -33.9375 94.078125 C -34.273438 94.078125 -34.273438 94.078125 -34.273438 93.742188 Z M -34.609375 94.414062 L -34.609375 94.078125 L -33.9375 94.753906 C -33.9375 95.761719 -33.601562 97.441406 -32.929688 99.792969 C -32.257812 101.808594 -31.921875 103.488281 -32.257812 104.496094 L -30.574219 107.855469 L -30.574219 108.191406 C -31.585938 107.855469 -32.257812 106.847656 -32.929688 105.167969 C -33.265625 105.167969 -33.265625 104.832031 -33.265625 104.496094 C -34.273438 101.808594 -34.609375 98.449219 -34.609375 96.769531 L -34.609375 95.761719 C -34.273438 95.761719 -34.273438 95.425781 -34.273438 95.089844 C -34.273438 95.089844 -34.273438 94.753906 -34.609375 94.414062 Z M -32.59375 104.832031 C -32.59375 104.496094 -32.59375 104.496094 -32.929688 104.496094 L -32.929688 105.167969 C -32.59375 105.167969 -32.59375 105.167969 -32.59375 104.832031 Z M -25.871094 111.214844 C -25.535156 111.214844 -25.535156 111.214844 -25.535156 111.550781 C -25.535156 111.886719 -25.535156 111.886719 -25.871094 111.886719 C -26.207031 111.886719 -26.207031 111.886719 -26.207031 111.550781 C -26.207031 111.214844 -26.207031 111.214844 -25.871094 111.214844 Z M -28.894531 111.550781 L -27.214844 111.550781 C -27.214844 111.886719 -27.550781 111.886719 -28.222656 111.886719 C -28.894531 111.886719 -29.230469 111.886719 -28.894531 111.550781 Z M -28.894531 111.550781 "/></g></g></g><g fill="#ffffff" fill-opacity="1"><g transform="translate(154.58166, 214.769811)"><g><path d="M 151.199219 -88.367188 C 150.863281 -88.367188 150.191406 -88.03125 149.855469 -87.695312 C 149.519531 -87.359375 148.847656 -87.023438 148.175781 -87.023438 C 146.496094 -87.023438 145.824219 -87.695312 146.160156 -89.375 L 145.488281 -89.710938 C 135.742188 -89.710938 123.984375 -64.511719 109.871094 -64.511719 L 108.527344 -64.511719 C 104.832031 -67.535156 103.824219 -73.921875 103.488281 -77.953125 L 101.808594 -98.785156 C 101.472656 -101.136719 100.800781 -107.519531 97.105469 -107.519531 C 96.769531 -107.519531 96.433594 -107.519531 96.097656 -107.183594 C 95.761719 -106.847656 95.089844 -106.511719 94.753906 -106.511719 C 94.078125 -106.511719 93.742188 -106.847656 93.40625 -107.855469 C 93.070312 -108.527344 92.0625 -108.863281 91.054688 -108.863281 C 84.335938 -108.863281 79.96875 -93.742188 77.617188 -87.695312 L 69.550781 -60.816406 C 68.542969 -58.464844 67.871094 -56.113281 66.191406 -54.769531 L 65.855469 -55.105469 C 62.160156 -59.808594 63.167969 -71.230469 63.167969 -77.953125 C 63.167969 -82.65625 63.503906 -87.359375 63.839844 -92.0625 C 64.175781 -96.433594 64.175781 -101.136719 64.175781 -105.839844 C 64.175781 -108.863281 64.511719 -122.640625 59.808594 -122.640625 C 59.472656 -122.640625 59.136719 -122.640625 58.800781 -122.304688 C 58.464844 -121.96875 58.128906 -121.96875 57.792969 -121.96875 C 57.121094 -122.304688 56.449219 -122.976562 56.113281 -123.3125 C 55.777344 -123.648438 55.105469 -123.984375 54.433594 -123.984375 C 50.0625 -123.984375 46.367188 -114.238281 45.023438 -111.214844 L 37.632812 -92.0625 L 20.160156 -29.566406 C 17.808594 -23.183594 15.792969 -16.128906 12.097656 -10.414062 C 8.734375 -10.414062 7.390625 -42 7.390625 -44.351562 L 9.40625 -72.910156 C 11.089844 -93.070312 16.800781 -120.289062 27.550781 -138.097656 L 27.550781 -139.105469 C 27.550781 -140.113281 27.214844 -140.449219 26.542969 -140.449219 C 26.207031 -140.449219 25.871094 -140.449219 25.535156 -140.113281 C 25.199219 -139.777344 24.863281 -139.777344 24.191406 -139.777344 C 23.183594 -139.777344 22.511719 -140.113281 22.511719 -141.121094 C 22.175781 -141.792969 21.503906 -142.128906 20.496094 -142.128906 C 16.128906 -142.128906 7.726562 -117.265625 7.726562 -114.238281 L 1.34375 -86.015625 L -2.015625 -59.472656 C -2.351562 -57.121094 -2.6875 -54.097656 -2.6875 -50.398438 C -2.351562 -46.703125 -2.351562 -44.015625 -2.351562 -42.335938 C -2.351562 -33.9375 -2.015625 -0.671875 9.742188 -0.671875 C 19.488281 -0.671875 24.863281 -16.128906 26.878906 -24.527344 L 43.679688 -88.03125 C 46.03125 -97.441406 50.0625 -106.511719 55.105469 -114.910156 C 55.441406 -114.238281 55.441406 -113.230469 55.441406 -112.222656 L 55.441406 -110.878906 L 53.089844 -84.335938 L 53.089844 -78.960938 C 53.089844 -70.222656 52.753906 -45.359375 63.839844 -45.359375 C 65.183594 -45.359375 66.191406 -45.695312 66.527344 -46.367188 C 71.566406 -46.703125 74.257812 -49.726562 75.601562 -54.769531 L 83.328125 -81.648438 C 84.671875 -86.015625 87.359375 -96.433594 91.726562 -99.121094 L 93.40625 -78.625 C 94.414062 -68.878906 98.785156 -57.457031 109.871094 -57.457031 C 122.976562 -57.457031 151.871094 -75.9375 151.871094 -87.023438 C 151.871094 -88.03125 151.535156 -88.367188 151.199219 -88.367188 Z M 59.808594 -118.945312 C 59.808594 -118.609375 59.808594 -118.273438 60.144531 -117.9375 L 60.144531 -115.921875 C 59.808594 -116.257812 59.472656 -117.265625 59.472656 -118.945312 Z M 60.816406 -113.566406 C 60.816406 -113.566406 60.480469 -113.902344 60.480469 -115.246094 Z M 60.480469 -112.894531 L 60.816406 -112.222656 L 60.480469 -111.886719 Z M 60.144531 -107.519531 L 60.144531 -108.863281 C 60.144531 -109.535156 60.144531 -109.871094 60.480469 -110.207031 L 60.480469 -111.214844 C 60.480469 -110.878906 60.816406 -110.542969 61.152344 -109.535156 C 61.152344 -108.527344 61.152344 -107.519531 60.144531 -107.519531 Z M 48.382812 -107.183594 C 48.046875 -107.183594 48.046875 -107.183594 48.046875 -107.519531 C 48.046875 -107.855469 48.046875 -107.855469 48.382812 -107.855469 C 48.71875 -107.855469 48.71875 -107.855469 48.71875 -107.519531 C 48.71875 -107.183594 48.71875 -107.183594 48.382812 -107.183594 Z M 60.480469 -106.175781 L 60.480469 -106.511719 L 60.816406 -106.175781 Z M 60.816406 -104.496094 C 60.816406 -103.488281 60.480469 -103.152344 60.144531 -103.152344 L 60.144531 -105.503906 C 60.480469 -105.167969 60.816406 -104.832031 60.816406 -104.496094 Z M 46.03125 -102.144531 C 45.695312 -102.144531 45.695312 -102.144531 45.695312 -102.480469 C 45.695312 -102.816406 45.695312 -102.816406 46.03125 -102.816406 C 46.367188 -102.816406 46.367188 -102.816406 46.367188 -102.480469 C 46.367188 -102.144531 46.367188 -102.144531 46.03125 -102.144531 Z M 60.480469 -102.144531 C 60.144531 -102.144531 60.144531 -102.144531 60.144531 -102.480469 C 60.144531 -102.816406 60.144531 -102.816406 60.480469 -102.816406 C 60.816406 -102.816406 60.816406 -102.816406 60.816406 -102.480469 C 60.816406 -102.144531 60.816406 -102.144531 60.480469 -102.144531 Z M 45.359375 -100.464844 C 45.023438 -100.464844 45.023438 -100.464844 45.023438 -100.800781 C 45.023438 -101.136719 45.023438 -101.136719 45.359375 -101.136719 C 45.695312 -101.136719 45.695312 -101.136719 45.695312 -100.800781 C 45.695312 -100.464844 45.695312 -100.464844 45.359375 -100.464844 Z M 60.144531 -100.800781 C 60.144531 -101.136719 60.144531 -101.136719 60.480469 -101.136719 C 60.816406 -101.136719 60.816406 -101.136719 60.816406 -100.800781 C 60.816406 -100.464844 60.816406 -100.464844 60.480469 -100.464844 C 60.144531 -100.464844 60.144531 -100.464844 60.144531 -100.800781 Z M 97.105469 -100.464844 C 97.105469 -100.800781 97.105469 -100.800781 97.441406 -100.800781 C 97.777344 -100.800781 97.777344 -100.800781 97.777344 -100.464844 C 97.777344 -100.128906 97.777344 -100.128906 97.441406 -100.128906 C 97.105469 -100.128906 97.105469 -100.128906 97.105469 -100.464844 Z M 59.808594 -98.449219 L 59.808594 -98.785156 C 59.808594 -99.457031 59.808594 -99.792969 60.144531 -99.792969 L 60.480469 -99.457031 L 60.480469 -98.785156 C 60.144531 -98.449219 60.144531 -98.449219 60.144531 -98.113281 Z M 98.113281 -98.785156 C 98.113281 -98.449219 98.113281 -98.449219 97.777344 -98.449219 C 97.441406 -98.449219 97.441406 -98.449219 97.441406 -98.785156 C 97.441406 -99.121094 97.441406 -99.121094 97.777344 -99.121094 C 98.113281 -99.121094 98.113281 -99.121094 98.113281 -98.785156 Z M 97.441406 -97.777344 C 97.441406 -98.113281 97.441406 -98.113281 97.777344 -98.113281 L 97.777344 -97.105469 C 97.441406 -97.105469 97.441406 -97.441406 97.441406 -97.777344 Z M 59.808594 -97.105469 L 60.144531 -97.441406 L 60.144531 -97.105469 Z M 86.6875 -96.433594 C 86.351562 -96.433594 86.351562 -96.433594 86.351562 -96.769531 C 86.351562 -97.105469 86.351562 -97.105469 86.6875 -97.105469 C 87.023438 -97.105469 87.023438 -97.105469 87.023438 -96.769531 C 87.023438 -96.433594 87.023438 -96.433594 86.6875 -96.433594 Z M 44.015625 -96.433594 L 43.679688 -96.433594 L 44.015625 -96.769531 Z M 98.785156 -95.761719 L 98.113281 -95.761719 L 98.113281 -96.433594 C 98.449219 -96.433594 98.785156 -96.097656 98.785156 -95.761719 Z M 60.144531 -95.425781 C 59.808594 -95.425781 59.808594 -95.425781 59.808594 -95.761719 Z M 43.34375 -94.414062 L 42.671875 -94.414062 L 43.34375 -95.425781 Z M 59.808594 -94.414062 C 60.144531 -94.414062 60.144531 -94.414062 60.144531 -94.078125 C 60.144531 -93.742188 60.144531 -93.742188 59.808594 -93.742188 C 59.472656 -93.742188 59.472656 -93.742188 59.472656 -94.078125 C 59.472656 -94.414062 59.472656 -94.414062 59.808594 -94.414062 Z M 98.449219 -93.742188 L 98.113281 -93.742188 L 98.113281 -94.078125 Z M 42.671875 -93.070312 L 42.335938 -93.40625 L 42.671875 -93.40625 Z M 59.808594 -93.40625 C 60.144531 -93.40625 60.144531 -93.40625 60.144531 -93.070312 C 60.144531 -92.734375 60.144531 -92.734375 59.808594 -92.734375 C 59.472656 -92.734375 59.472656 -92.734375 59.472656 -93.070312 C 59.472656 -93.40625 59.472656 -93.40625 59.808594 -93.40625 Z M 97.777344 -92.734375 C 97.777344 -93.070312 97.777344 -93.070312 98.113281 -93.070312 C 98.449219 -93.070312 98.449219 -93.070312 98.449219 -92.734375 C 98.449219 -92.398438 98.449219 -92.398438 98.113281 -92.398438 C 97.777344 -92.398438 97.777344 -92.398438 97.777344 -92.734375 Z M 42.335938 -91.726562 C 42 -91.726562 42 -91.726562 42 -92.0625 L 42.335938 -92.0625 Z M 98.113281 -91.726562 C 98.113281 -92.0625 98.113281 -92.0625 98.449219 -92.0625 L 98.449219 -91.390625 C 98.113281 -91.390625 98.113281 -91.390625 98.113281 -91.726562 Z M 42 -90.71875 C 41.664062 -90.71875 41.664062 -90.71875 41.664062 -91.054688 C 41.664062 -91.390625 41.664062 -91.390625 42 -91.390625 C 42.335938 -91.390625 42.335938 -91.390625 42.335938 -91.054688 C 42.335938 -90.71875 42.335938 -90.71875 42 -90.71875 Z M 59.472656 -90.046875 L 59.472656 -89.039062 C 59.136719 -89.039062 59.136719 -89.375 59.136719 -89.710938 C 59.136719 -90.046875 59.136719 -90.046875 59.472656 -90.046875 Z M 41.328125 -88.03125 L 40.992188 -88.703125 L 41.328125 -88.703125 Z M 99.121094 -88.03125 C 99.121094 -87.695312 99.121094 -87.695312 98.785156 -87.695312 C 98.449219 -87.695312 98.449219 -87.695312 98.449219 -88.03125 C 98.449219 -88.367188 98.449219 -88.367188 98.785156 -88.367188 C 99.121094 -88.367188 99.121094 -88.367188 99.121094 -88.03125 Z M 40.992188 -87.359375 C 40.65625 -87.359375 40.65625 -87.359375 40.65625 -87.695312 C 40.65625 -88.03125 40.65625 -88.03125 40.992188 -88.03125 C 41.328125 -88.03125 41.328125 -88.03125 41.328125 -87.695312 C 41.328125 -87.359375 41.328125 -87.359375 40.992188 -87.359375 Z M 40.65625 -86.6875 C 40.320312 -86.6875 40.320312 -86.6875 40.320312 -87.023438 C 40.320312 -87.359375 40.320312 -87.359375 40.65625 -87.359375 Z M 82.65625 -86.351562 C 82.320312 -86.351562 82.320312 -86.351562 82.320312 -86.6875 C 82.320312 -87.023438 82.320312 -87.023438 82.65625 -87.023438 C 82.992188 -87.023438 82.992188 -87.023438 82.992188 -86.6875 C 82.992188 -86.351562 82.992188 -86.351562 82.65625 -86.351562 Z M 59.472656 -86.6875 C 59.808594 -86.6875 59.808594 -86.6875 59.808594 -86.351562 C 59.808594 -86.015625 59.808594 -86.015625 59.472656 -86.015625 C 59.136719 -86.015625 59.136719 -86.015625 59.136719 -86.351562 C 59.136719 -86.6875 59.136719 -86.6875 59.472656 -86.6875 Z M 81.984375 -85.679688 C 81.648438 -85.679688 81.648438 -85.679688 81.648438 -86.015625 C 81.648438 -86.351562 81.648438 -86.351562 81.984375 -86.351562 C 82.320312 -86.351562 82.320312 -86.351562 82.320312 -86.015625 C 82.320312 -85.679688 82.320312 -85.679688 81.984375 -85.679688 Z M 39.984375 -85.007812 C 39.648438 -85.007812 39.648438 -85.007812 39.648438 -85.34375 C 39.648438 -85.679688 39.648438 -85.679688 39.984375 -85.679688 C 40.320312 -85.679688 40.320312 -85.679688 40.320312 -85.34375 C 40.320312 -85.007812 40.320312 -85.007812 39.984375 -85.007812 Z M 98.449219 -85.34375 C 98.449219 -85.679688 98.449219 -85.679688 98.785156 -85.679688 L 98.785156 -85.007812 C 98.449219 -85.007812 98.449219 -85.007812 98.449219 -85.34375 Z M 59.136719 -85.007812 L 59.472656 -85.007812 L 59.136719 -84.671875 Z M 39.648438 -83.664062 C 39.3125 -83.664062 39.3125 -83.664062 39.3125 -84 C 39.3125 -84.335938 39.3125 -84.335938 39.648438 -84.335938 C 39.984375 -84.335938 39.984375 -84.335938 39.984375 -84 C 39.984375 -83.664062 39.984375 -83.664062 39.648438 -83.664062 Z M 80.304688 -83.664062 C 80.304688 -84 80.304688 -84 80.640625 -84 C 80.976562 -84 80.976562 -84 80.976562 -83.664062 C 80.976562 -83.328125 80.976562 -83.328125 80.640625 -83.328125 C 80.976562 -83.328125 80.976562 -83.328125 80.976562 -82.992188 C 80.976562 -82.65625 80.976562 -82.65625 80.640625 -82.65625 C 80.304688 -82.65625 80.304688 -82.65625 80.304688 -82.992188 C 80.304688 -83.328125 80.304688 -83.328125 80.640625 -83.328125 C 80.304688 -83.328125 80.304688 -83.328125 80.304688 -83.664062 Z M 81.3125 -83.664062 C 80.976562 -83.664062 80.976562 -83.664062 80.976562 -84 L 81.3125 -84 Z M 38.976562 -81.648438 C 38.976562 -82.65625 39.3125 -82.992188 39.648438 -83.328125 C 39.648438 -82.65625 39.3125 -81.984375 38.976562 -81.648438 Z M 99.457031 -82.65625 C 99.457031 -82.320312 99.457031 -82.320312 99.121094 -82.320312 C 98.785156 -82.320312 98.785156 -82.320312 98.785156 -82.65625 C 98.785156 -82.992188 98.785156 -82.992188 99.121094 -82.992188 C 99.457031 -82.992188 99.457031 -82.992188 99.457031 -82.65625 Z M 80.976562 -81.984375 C 80.976562 -81.648438 80.976562 -81.648438 80.640625 -81.648438 C 80.304688 -81.648438 80.304688 -81.648438 80.304688 -81.984375 C 80.304688 -82.320312 80.304688 -82.320312 80.640625 -82.320312 C 80.640625 -82.65625 80.640625 -82.65625 80.976562 -82.65625 C 81.3125 -82.65625 81.3125 -82.65625 81.3125 -82.320312 C 81.3125 -81.984375 81.3125 -81.984375 80.976562 -81.984375 Z M 80.640625 -82.320312 C 80.640625 -81.984375 80.640625 -81.984375 80.976562 -81.984375 C 80.976562 -82.320312 80.976562 -82.320312 80.640625 -82.320312 Z M 80.304688 -80.640625 C 79.96875 -80.640625 79.96875 -80.640625 79.96875 -80.976562 C 79.96875 -81.3125 79.96875 -81.3125 80.304688 -81.3125 C 80.640625 -81.3125 80.640625 -81.3125 80.640625 -80.976562 C 80.640625 -80.640625 80.640625 -80.640625 80.304688 -80.640625 Z M 38.640625 -80.640625 L 38.640625 -80.976562 L 38.976562 -80.976562 Z M 59.136719 -80.976562 C 59.472656 -80.976562 59.472656 -80.976562 59.472656 -80.640625 C 59.472656 -80.304688 59.472656 -80.304688 59.136719 -80.304688 C 58.800781 -80.304688 58.800781 -80.304688 58.800781 -80.640625 C 58.800781 -80.976562 58.800781 -80.976562 59.136719 -80.976562 Z M 99.121094 -80.304688 C 98.785156 -80.304688 98.785156 -80.304688 98.785156 -80.640625 C 98.785156 -80.976562 98.785156 -80.976562 99.121094 -80.976562 C 99.457031 -80.976562 99.457031 -80.976562 99.457031 -80.640625 C 99.457031 -80.304688 99.457031 -80.304688 99.121094 -80.304688 Z M 38.304688 -78.960938 L 38.304688 -79.96875 L 38.640625 -79.96875 C 38.640625 -79.296875 38.640625 -78.960938 38.304688 -78.960938 Z M 99.121094 -79.296875 C 98.785156 -79.296875 98.785156 -79.296875 98.785156 -79.632812 C 98.785156 -79.96875 98.785156 -79.96875 99.121094 -79.96875 Z M 79.632812 -77.28125 C 79.632812 -76.945312 79.632812 -76.945312 79.296875 -76.945312 C 78.960938 -76.945312 78.960938 -76.945312 78.960938 -77.28125 C 78.960938 -77.617188 78.960938 -77.617188 79.296875 -77.617188 C 78.960938 -77.617188 78.960938 -77.617188 78.960938 -77.953125 C 78.960938 -78.289062 78.960938 -78.289062 79.296875 -78.289062 C 79.632812 -78.289062 79.632812 -78.289062 79.632812 -77.953125 C 79.632812 -77.617188 79.632812 -77.617188 79.296875 -77.617188 C 79.632812 -77.617188 79.632812 -77.617188 79.632812 -77.28125 Z M 37.632812 -75.9375 L 37.632812 -76.609375 C 37.632812 -76.945312 37.632812 -77.28125 37.96875 -77.617188 C 37.96875 -76.609375 37.96875 -76.273438 37.632812 -75.9375 Z M 59.136719 -77.28125 C 59.472656 -77.28125 59.472656 -77.28125 59.472656 -76.945312 C 59.472656 -76.609375 59.472656 -76.609375 59.136719 -76.609375 C 58.800781 -76.609375 58.800781 -76.609375 58.800781 -76.945312 C 58.800781 -77.28125 58.800781 -77.28125 59.136719 -77.28125 Z M 78.289062 -76.945312 C 78.289062 -76.945312 78.625 -76.945312 78.960938 -76.609375 Z M 99.457031 -76.945312 L 99.792969 -76.609375 L 99.792969 -76.273438 C 99.457031 -76.609375 99.457031 -76.609375 99.457031 -76.945312 Z M 78.625 -74.257812 L 77.953125 -74.257812 C 77.953125 -74.59375 78.289062 -74.929688 78.625 -75.9375 Z M 99.792969 -73.921875 C 99.457031 -73.921875 99.457031 -73.921875 99.457031 -74.257812 C 99.457031 -74.59375 99.457031 -74.59375 99.792969 -74.59375 C 100.128906 -74.59375 100.128906 -74.59375 100.128906 -74.257812 C 100.128906 -73.921875 100.128906 -73.921875 99.792969 -73.921875 Z M 36.960938 -73.246094 C 36.625 -73.246094 36.625 -73.246094 36.625 -73.585938 C 36.625 -73.921875 36.625 -73.921875 36.960938 -73.921875 C 37.296875 -73.921875 37.296875 -73.921875 37.296875 -73.585938 C 37.296875 -73.246094 37.296875 -73.246094 36.960938 -73.246094 Z M 59.136719 -73.921875 L 59.136719 -72.910156 C 58.800781 -72.910156 58.800781 -73.246094 58.800781 -73.585938 C 58.800781 -73.921875 58.800781 -73.921875 59.136719 -73.921875 Z M 77.953125 -72.574219 C 77.953125 -72.574219 77.953125 -72.910156 77.617188 -73.246094 L 77.953125 -73.585938 Z M 36.625 -72.238281 C 36.289062 -72.238281 36.289062 -72.238281 36.289062 -72.574219 C 36.289062 -72.910156 36.289062 -72.910156 36.625 -72.910156 C 36.960938 -72.910156 36.960938 -72.910156 36.960938 -72.574219 C 36.960938 -72.238281 36.960938 -72.238281 36.625 -72.238281 Z M 59.136719 -72.238281 L 59.136719 -71.902344 C 58.800781 -71.902344 58.800781 -71.902344 58.800781 -72.238281 Z M 76.609375 -68.878906 C 76.609375 -69.214844 76.609375 -69.550781 76.945312 -70.222656 C 77.28125 -70.894531 77.28125 -71.230469 77.28125 -71.566406 C 77.28125 -71.566406 77.28125 -71.902344 77.617188 -72.238281 C 77.617188 -71.230469 77.617188 -68.878906 76.609375 -68.878906 Z M 36.289062 -71.230469 L 36.289062 -71.902344 L 36.625 -71.902344 Z M 59.136719 -70.894531 C 59.136719 -71.230469 59.136719 -71.230469 59.472656 -71.230469 C 59.808594 -71.230469 59.808594 -71.230469 59.808594 -70.894531 C 59.808594 -70.558594 59.808594 -70.558594 59.472656 -70.558594 C 59.136719 -70.558594 59.136719 -70.558594 59.136719 -70.894531 Z M 101.136719 -69.550781 L 100.800781 -69.550781 L 100.800781 -70.222656 L 101.136719 -70.222656 Z M 35.953125 -69.550781 C 35.617188 -69.550781 35.617188 -69.550781 35.617188 -69.886719 L 35.953125 -69.886719 Z M 35.617188 -68.542969 C 35.28125 -68.542969 35.28125 -68.542969 35.28125 -68.878906 C 35.28125 -69.214844 35.28125 -69.214844 35.617188 -69.214844 C 35.953125 -69.214844 35.953125 -69.214844 35.953125 -68.878906 C 35.953125 -68.542969 35.953125 -68.542969 35.617188 -68.542969 Z M 59.472656 -68.878906 L 59.472656 -68.542969 L 59.136719 -68.878906 Z M 58.800781 -68.207031 C 58.800781 -68.542969 58.800781 -68.542969 59.136719 -68.542969 C 59.472656 -68.542969 59.472656 -68.542969 59.472656 -68.207031 C 59.472656 -67.871094 59.472656 -67.871094 59.136719 -67.871094 C 58.800781 -67.871094 58.800781 -67.871094 58.800781 -68.207031 Z M 76.609375 -67.199219 L 76.273438 -67.871094 C 76.609375 -68.207031 76.609375 -68.207031 76.945312 -68.207031 Z M 35.28125 -66.863281 C 34.945312 -66.863281 34.945312 -66.863281 34.945312 -67.199219 C 34.945312 -67.535156 34.945312 -67.535156 35.28125 -67.535156 C 35.617188 -67.535156 35.617188 -67.535156 35.617188 -67.199219 C 35.617188 -66.863281 35.617188 -66.863281 35.28125 -66.863281 Z M 59.472656 -67.199219 L 59.808594 -66.527344 L 59.472656 -66.191406 L 59.136719 -67.535156 C 59.472656 -67.535156 59.472656 -67.535156 59.472656 -67.199219 Z M 75.601562 -65.519531 L 75.601562 -66.527344 C 75.601562 -66.863281 75.9375 -67.199219 76.273438 -67.199219 C 76.273438 -66.191406 75.9375 -65.519531 75.601562 -65.519531 Z M 59.472656 -65.519531 L 59.808594 -65.519531 L 59.808594 -65.183594 Z M 75.9375 -64.511719 C 75.601562 -64.511719 75.601562 -64.511719 75.601562 -64.847656 C 75.601562 -65.183594 75.601562 -65.183594 75.9375 -65.183594 C 76.273438 -65.183594 76.273438 -65.183594 76.273438 -64.847656 C 76.273438 -64.511719 76.273438 -64.511719 75.9375 -64.511719 Z M 34.609375 -64.511719 C 34.273438 -64.511719 34.273438 -64.511719 34.273438 -64.847656 L 34.609375 -64.847656 Z M 74.929688 -63.167969 L 75.265625 -64.511719 L 75.601562 -64.511719 C 75.601562 -63.503906 75.265625 -63.167969 74.929688 -63.167969 Z M 59.808594 -64.175781 L 59.808594 -63.839844 C 59.472656 -63.839844 59.472656 -63.839844 59.472656 -64.175781 Z M 34.273438 -62.832031 C 33.9375 -62.832031 33.9375 -62.832031 33.9375 -63.167969 C 33.9375 -63.503906 33.9375 -63.503906 34.273438 -63.503906 C 34.609375 -63.503906 34.609375 -63.503906 34.609375 -63.167969 C 34.609375 -62.832031 34.609375 -62.832031 34.273438 -62.832031 Z M 59.472656 -63.167969 C 59.472656 -63.503906 59.472656 -63.503906 59.808594 -63.503906 C 60.144531 -63.503906 60.144531 -63.503906 60.144531 -63.167969 C 60.144531 -62.832031 60.144531 -62.832031 59.808594 -62.832031 C 59.472656 -62.832031 59.472656 -62.832031 59.472656 -63.167969 Z M 74.929688 -61.824219 C 74.59375 -61.824219 74.59375 -61.824219 74.59375 -62.160156 C 74.59375 -62.496094 74.59375 -62.496094 74.929688 -62.496094 C 75.265625 -62.496094 75.265625 -62.496094 75.265625 -62.160156 C 75.265625 -61.824219 75.265625 -61.824219 74.929688 -61.824219 Z M 30.910156 -61.488281 C 30.910156 -61.824219 30.910156 -61.824219 31.246094 -61.824219 C 31.585938 -61.824219 31.585938 -61.824219 31.585938 -61.488281 C 31.585938 -61.152344 31.585938 -61.152344 31.246094 -61.152344 C 30.910156 -61.152344 30.910156 -61.152344 30.910156 -61.488281 Z M 59.808594 -61.488281 C 59.808594 -61.824219 59.808594 -61.824219 60.144531 -61.824219 C 60.480469 -61.824219 60.480469 -61.824219 60.480469 -61.488281 C 60.480469 -61.152344 60.480469 -61.152344 60.144531 -61.152344 C 59.808594 -61.152344 59.808594 -61.152344 59.808594 -61.488281 Z M 74.59375 -61.488281 L 74.929688 -61.152344 C 74.59375 -61.152344 74.59375 -61.152344 74.59375 -61.488281 Z M 104.832031 -59.808594 L 105.167969 -59.808594 L 105.503906 -59.472656 C 105.167969 -59.472656 104.832031 -59.472656 104.832031 -59.808594 Z M 106.175781 -59.136719 C 105.839844 -59.136719 105.839844 -59.136719 105.839844 -59.472656 C 105.839844 -59.808594 105.839844 -59.808594 106.175781 -59.808594 C 106.511719 -59.808594 106.511719 -59.808594 106.511719 -59.472656 C 106.511719 -59.136719 106.511719 -59.136719 106.175781 -59.136719 Z M 73.921875 -58.800781 C 73.585938 -58.800781 73.585938 -58.800781 73.585938 -59.136719 L 73.921875 -59.136719 Z M 60.480469 -58.800781 C 60.816406 -58.800781 61.152344 -58.464844 61.152344 -58.128906 C 61.152344 -57.792969 60.144531 -58.800781 60.480469 -58.800781 Z M 73.585938 -57.121094 L 73.246094 -56.449219 L 73.246094 -57.121094 C 73.246094 -57.792969 73.246094 -57.792969 73.585938 -57.792969 Z M 32.59375 -55.441406 C 32.257812 -55.441406 32.257812 -55.441406 32.257812 -55.777344 C 32.257812 -56.113281 32.257812 -56.113281 32.59375 -56.113281 C 32.929688 -56.113281 32.929688 -56.113281 32.929688 -55.777344 C 32.929688 -55.441406 32.929688 -55.441406 32.59375 -55.441406 Z M 61.824219 -53.761719 C 61.488281 -53.761719 61.488281 -53.761719 61.488281 -54.097656 C 61.488281 -54.433594 61.488281 -54.433594 61.824219 -54.433594 C 62.160156 -54.433594 62.160156 -54.433594 62.160156 -54.097656 C 62.160156 -53.761719 62.160156 -53.761719 61.824219 -53.761719 Z M 62.496094 -52.414062 C 62.160156 -52.414062 62.160156 -52.414062 62.160156 -52.753906 L 62.496094 -52.753906 Z M 31.585938 -51.742188 C 31.246094 -51.742188 31.246094 -51.742188 31.246094 -52.078125 C 31.246094 -52.414062 31.246094 -52.414062 31.585938 -52.414062 C 31.921875 -52.414062 31.921875 -52.414062 31.921875 -52.078125 C 31.921875 -51.742188 31.921875 -51.742188 31.585938 -51.742188 Z M 30.910156 -49.726562 C 30.574219 -49.726562 30.574219 -49.726562 30.574219 -50.0625 L 30.910156 -50.0625 Z M 30.238281 -47.375 C 29.902344 -47.375 29.902344 -47.375 29.902344 -47.710938 C 29.902344 -48.046875 29.902344 -48.046875 30.238281 -48.046875 C 30.574219 -48.046875 30.574219 -48.046875 30.574219 -47.710938 C 30.574219 -47.375 30.574219 -47.375 30.238281 -47.375 Z M 64.847656 -46.03125 C 64.511719 -46.03125 64.511719 -46.03125 64.511719 -46.367188 L 64.847656 -46.367188 Z M 29.902344 -45.359375 C 29.566406 -45.359375 29.566406 -45.359375 29.566406 -45.695312 C 29.566406 -46.03125 29.566406 -46.03125 29.902344 -46.03125 C 30.238281 -46.03125 30.238281 -46.03125 30.238281 -45.695312 C 30.238281 -45.359375 30.238281 -45.359375 29.902344 -45.359375 Z M 29.566406 -44.015625 C 29.230469 -44.015625 29.230469 -44.351562 29.230469 -44.6875 C 29.230469 -45.023438 29.230469 -45.023438 29.566406 -45.023438 Z M 28.894531 -41.328125 C 28.558594 -41.328125 28.558594 -41.328125 28.558594 -41.664062 C 28.558594 -42 28.558594 -42 28.894531 -42 C 29.230469 -42 29.230469 -42 29.230469 -41.664062 C 29.230469 -41.328125 29.230469 -41.328125 28.894531 -41.328125 Z M 28.222656 -39.3125 C 27.886719 -39.3125 27.886719 -39.3125 27.886719 -39.648438 C 27.886719 -39.984375 27.886719 -39.984375 28.222656 -39.984375 C 28.558594 -39.984375 28.558594 -39.984375 28.558594 -39.648438 C 28.558594 -39.3125 28.558594 -39.3125 28.222656 -39.3125 Z M 27.550781 -36.960938 C 27.550781 -36.625 27.550781 -36.625 27.214844 -36.625 C 26.878906 -36.625 26.878906 -36.625 26.878906 -36.960938 C 26.878906 -37.296875 26.878906 -37.296875 27.214844 -37.296875 C 27.214844 -37.632812 27.214844 -37.632812 27.550781 -37.632812 C 27.886719 -37.632812 27.886719 -37.632812 27.886719 -37.296875 C 27.886719 -36.960938 27.886719 -36.960938 27.550781 -36.960938 Z M 27.214844 -37.296875 C 27.214844 -36.960938 27.214844 -36.960938 27.550781 -36.960938 C 27.550781 -37.296875 27.550781 -37.296875 27.214844 -37.296875 Z M 3.695312 -31.921875 C 3.695312 -32.257812 3.695312 -32.257812 4.03125 -32.257812 C 4.367188 -32.257812 4.367188 -32.257812 4.367188 -31.921875 C 4.367188 -31.585938 4.367188 -31.585938 4.03125 -31.585938 C 3.695312 -31.585938 3.695312 -31.585938 3.695312 -31.921875 Z M 4.03125 -23.855469 L 4.367188 -23.855469 L 4.367188 -23.519531 C 4.03125 -23.519531 4.03125 -23.519531 4.03125 -23.855469 Z M 4.703125 -22.175781 C 5.039062 -22.175781 5.039062 -22.175781 5.039062 -21.839844 C 5.039062 -21.503906 5.039062 -21.503906 4.703125 -21.503906 C 4.367188 -21.503906 4.367188 -21.503906 4.367188 -21.839844 C 4.367188 -22.175781 4.367188 -22.175781 4.703125 -22.175781 Z M 4.703125 -20.496094 C 4.367188 -20.496094 4.367188 -20.496094 4.367188 -20.832031 C 4.367188 -21.167969 4.367188 -21.167969 4.703125 -21.167969 C 5.039062 -21.167969 5.039062 -21.167969 5.039062 -20.832031 C 5.039062 -20.496094 5.039062 -20.496094 4.703125 -20.496094 Z M 5.375 -17.136719 C 5.039062 -16.800781 5.039062 -17.136719 5.039062 -17.808594 C 5.039062 -18.480469 5.039062 -18.816406 5.375 -18.480469 Z M 6.382812 -13.777344 C 6.046875 -13.777344 6.046875 -13.777344 6.046875 -14.113281 C 6.046875 -14.449219 6.046875 -14.449219 6.382812 -14.449219 C 6.71875 -14.449219 6.71875 -14.449219 6.71875 -14.113281 C 6.71875 -13.777344 6.71875 -13.777344 6.382812 -13.777344 Z M 7.726562 -8.734375 C 7.390625 -8.734375 7.390625 -8.734375 7.390625 -9.070312 C 7.390625 -9.40625 7.390625 -9.40625 7.726562 -9.40625 C 8.0625 -9.40625 8.0625 -9.40625 8.0625 -9.070312 C 8.0625 -8.734375 8.0625 -8.734375 7.726562 -8.734375 Z M 7.726562 -8.734375 "/></g></g></g><g fill="#ffffff" fill-opacity="1"><g transform="translate(295.365388, 214.769811)"><g><path d="M 20.160156 -20.496094 L 24.527344 -20.496094 C 26.207031 -20.496094 28.222656 -22.511719 28.222656 -23.855469 L 28.222656 -27.886719 C 28.222656 -28.894531 26.878906 -30.910156 25.871094 -30.910156 L 24.863281 -30.910156 L 24.191406 -30.574219 C 23.183594 -31.921875 22.175781 -33.601562 20.832031 -33.601562 C 18.480469 -33.601562 17.136719 -25.535156 17.136719 -24.191406 C 17.136719 -22.511719 17.808594 -20.496094 20.160156 -20.496094 Z M 20.160156 -20.496094 "/></g></g></g></svg>